# Blender 3.6 OBJ exporter – minimal unit-test cube
mtllib cube.mtl
o Cube
v  1.0  1.0 -1.0
v  1.0 -1.0 -1.0
v  1.0  1.0  1.0
v  1.0 -1.0  1.0
v -1.0  1.0 -1.0
v -1.0 -1.0 -1.0
v -1.0  1.0  1.0
v -1.0 -1.0  1.0
vn  0.0  1.0  0.0
vn  0.0  0.0  1.0
vn -1.0  0.0  0.0
vn  0.0 -1.0  0.0
vn  1.0  0.0  0.0
vn  0.0  0.0 -1.0
vt  0.625 0.500
vt  0.875 0.500
vt  0.875 0.750
vt  0.625 0.750
vt  0.375 0.750
vt  0.625 1.000
vt  0.375 1.000
vt  0.375 0.000
vt  0.625 0.000
vt  0.625 0.250
vt  0.375 0.250
vt  0.125 0.500
vt  0.375 0.500
vt  0.125 0.750
s 0
f 1/1/1 5/2/1 7/3/1 3/4/1
f 4/5/2 3/4/2 7/6/2 8/7/2
f 8/8/3 7/9/3 5/10/3 6/11/3
f 6/12/4 2/13/4 4/5/4 8/14/4
f 2/13/5 1/1/5 3/4/5 4/5/5
f 6/12/6 5/2/6 1/1/6 2/13/6
